<svg width="148" height="44" viewBox="0 0 148 44" fill="none" xmlns="http://www.w3.org/2000/svg">
<path d="M74.5104 0H0V44H74.5104V0Z" fill="#9A9A9A"/>
<path d="M37.6413 12.974H19.5829C18.0145 12.9451 16.4535 13.2269 14.995 13.8049C13.5365 14.3758 12.21 15.2356 11.0887 16.3194C9.96737 17.4032 9.08057 18.7038 8.47227 20.1272C7.86397 21.5578 7.54883 23.0896 7.54883 24.6359C7.54883 26.1821 7.86397 27.7211 8.47227 29.1445C9.08057 30.5752 9.96737 31.8685 11.0887 32.9523C12.21 34.0362 13.5365 34.896 14.995 35.4668C16.4535 36.0376 18.0145 36.3266 19.5829 36.2977H38.0591V31.3844H20.0006H19.8101H19.5902C18.6814 31.4061 17.7727 31.2471 16.9225 30.9148C16.0724 30.5824 15.3028 30.0911 14.6505 29.4625C13.9983 28.8338 13.4779 28.0824 13.1261 27.2587C12.7743 26.4278 12.5911 25.539 12.5911 24.6431C12.5911 23.7471 12.7743 22.8512 13.1261 22.0275C13.4779 21.1966 13.9983 20.4451 14.6505 19.8237C15.3028 19.1951 16.0724 18.7038 16.9225 18.3714C17.7727 18.039 18.6741 17.8801 19.5902 17.9018H19.8101H20.0006H38.0591V12.9668H37.6413V12.974Z" fill="white"/>
<path d="M48.0046 31.4495V12.9524H43.0723V36.3122H66.752V31.4495H48.0046Z" fill="white"/>
<path d="M90.3438 11.6736H91.7437V20.886H90.1973V14.2747L86.9505 18.3282H86.6134L83.3814 14.2892V20.886H81.8203V11.6736H83.2348L86.7893 16.1389L90.3438 11.6736Z" fill="#9A9A9A"/>
<path fill-rule="evenodd" clip-rule="evenodd" d="M81.6113 11.4688H83.3346L86.7881 15.8071L90.2415 11.4688H91.9502V21.0908H89.9883V14.8646L87.05 18.533H86.5115L83.5879 14.8795V21.0908H81.6113V11.4688ZM82.0268 11.8784V20.6812H83.1724V13.6989L86.7129 18.1234H86.8487L90.4038 13.6849V20.6812H91.5347V11.8784H90.4436L86.7881 16.4706L83.1325 11.8784H82.0268Z" fill="#9A9A9A"/>
<path d="M95.8706 19.4771H101.279V20.886H94.3242V11.6736H101.199V13.0681H95.8706V15.532H100.972V16.8976H95.8706V19.4771Z" fill="#9A9A9A"/>
<path fill-rule="evenodd" clip-rule="evenodd" d="M94.1152 11.4688H101.405V13.2729H96.0771V15.3271H101.178V17.1024H96.0771V19.2722H101.486V21.0908H94.1152V11.4688ZM94.5307 11.8784V20.6812H101.07V19.6818H95.6616V16.6927H100.763V15.7368H95.6616V12.8633H100.99V11.8784H94.5307Z" fill="#9A9A9A"/>
<path d="M109.473 12.2444C110.191 12.6273 110.741 13.1692 111.136 13.8629C111.525 14.5638 111.723 15.3658 111.723 16.2762C111.723 17.1866 111.525 17.9958 111.136 18.6895C110.748 19.3903 110.191 19.925 109.473 20.308C108.754 20.6909 107.934 20.8788 107.01 20.8788H103.434V11.6736H107.01C107.934 11.6736 108.754 11.8614 109.473 12.2444ZM108.644 19.0652C109.121 18.7979 109.487 18.4221 109.751 17.938C110.015 17.4539 110.147 16.9048 110.147 16.2762C110.147 15.6548 110.015 15.0984 109.751 14.6143C109.487 14.1302 109.121 13.7545 108.644 13.4872C108.168 13.2198 107.626 13.0825 107.01 13.0825H104.995V19.4554H107.01C107.618 19.4626 108.168 19.3325 108.644 19.0652Z" fill="#9A9A9A"/>
<path fill-rule="evenodd" clip-rule="evenodd" d="M103.225 11.4688H107.009C107.962 11.4688 108.817 11.6628 109.57 12.0642C110.324 12.466 110.902 13.0359 111.316 13.7625L111.317 13.7636L111.317 13.7647C111.724 14.499 111.929 15.3355 111.929 16.2762C111.929 17.2162 111.725 18.0602 111.317 18.7881C110.909 19.525 110.322 20.0873 109.57 20.4881C108.817 20.8895 107.962 21.0836 107.009 21.0836H103.225V11.4688ZM103.64 11.8784V20.674H107.009C107.903 20.674 108.689 20.4923 109.373 20.1278C110.057 19.7628 110.584 19.2559 110.953 18.5913L110.953 18.5905C111.322 17.9311 111.514 17.1568 111.514 16.2762C111.514 15.3965 111.323 14.6293 110.953 13.9622C110.576 13.3019 110.055 12.7884 109.373 12.4245C108.689 12.0601 107.903 11.8784 107.009 11.8784H103.64ZM104.786 12.8777H107.009C107.657 12.8777 108.236 13.0227 108.746 13.3092C109.258 13.5962 109.651 14.0006 109.933 14.5174C110.215 15.0352 110.353 15.6256 110.353 16.2762C110.353 16.9341 110.215 17.5173 109.933 18.035C109.651 18.5517 109.258 18.9561 108.746 19.2432C108.234 19.5305 107.648 19.6676 107.008 19.6602H104.786V12.8777ZM105.201 13.2873V19.2505H107.01L107.011 19.2506C107.587 19.2574 108.1 19.1344 108.54 18.8872C108.982 18.6396 109.321 18.2925 109.567 17.8411C109.812 17.3905 109.938 16.8754 109.938 16.2762C109.938 15.6839 109.812 15.1617 109.567 14.7113C109.321 14.2598 108.982 13.9128 108.54 13.6651C108.098 13.4169 107.592 13.2873 107.009 13.2873H105.201Z" fill="#9A9A9A"/>
<path d="M113.723 11.6736H115.284V20.886H113.723V11.6736Z" fill="#9A9A9A"/>
<path fill-rule="evenodd" clip-rule="evenodd" d="M113.516 11.4688H115.492V21.0908H113.516V11.4688ZM113.931 11.8784V20.6812H115.077V11.8784H113.931Z" fill="#9A9A9A"/>
<path d="M119.643 20.4597C118.903 20.0551 118.324 19.4842 117.906 18.7617C117.496 18.0392 117.283 17.2082 117.283 16.2834C117.283 15.3513 117.488 14.5276 117.906 13.8051C118.317 13.0825 118.896 12.5117 119.643 12.1071C120.383 11.7025 121.226 11.4929 122.172 11.4929C123.549 11.4929 124.715 11.9698 125.653 12.9163L124.612 13.8629C123.96 13.2198 123.168 12.9019 122.223 12.9019C121.563 12.9019 120.984 13.0464 120.471 13.3282C119.966 13.61 119.57 14.0146 119.284 14.5276C118.998 15.0406 118.859 15.6259 118.859 16.2834C118.859 16.9409 118.998 17.5262 119.284 18.0392C119.57 18.5522 119.966 18.9496 120.471 19.2386C120.977 19.5204 121.563 19.6649 122.223 19.6649C122.692 19.6649 123.146 19.5782 123.579 19.4048C124.011 19.2314 124.392 18.9929 124.722 18.675L125.726 19.701C124.781 20.6114 123.601 21.0666 122.186 21.0666C121.233 21.0666 120.383 20.8643 119.643 20.4597Z" fill="#9A9A9A"/>
<path fill-rule="evenodd" clip-rule="evenodd" d="M122.172 11.6977C121.259 11.6977 120.451 11.8998 119.745 12.2862L119.744 12.2866C119.031 12.6726 118.48 13.2158 118.088 13.9051L118.088 13.9058L118.087 13.9065C117.69 14.5942 117.492 15.382 117.492 16.2834C117.492 17.1761 117.697 17.9718 118.088 18.6609C118.487 19.3512 119.039 19.8946 119.745 20.2805C120.45 20.6662 121.265 20.8618 122.187 20.8618C123.477 20.8618 124.554 20.4713 125.431 19.6937L124.714 18.9613C124.401 19.2302 124.048 19.438 123.658 19.5945C123.2 19.778 122.719 19.8697 122.224 19.8697C121.532 19.8697 120.91 19.718 120.37 19.4169L120.369 19.4163L120.368 19.4158C119.829 19.108 119.407 18.6835 119.103 18.1378C118.798 17.5903 118.652 16.9702 118.652 16.2834C118.652 15.5966 118.798 14.9765 119.103 14.429C119.406 13.8845 119.829 13.4514 120.37 13.1499L120.37 13.1495L120.371 13.1492C120.917 12.849 121.532 12.697 122.224 12.697C123.154 12.697 123.951 12.9905 124.615 13.5823L125.352 12.9117C124.482 12.1039 123.422 11.6977 122.172 11.6977ZM119.543 11.9277C120.317 11.505 121.195 11.2881 122.172 11.2881C123.604 11.2881 124.824 11.7861 125.802 12.7732L125.952 12.9239L124.607 14.1468L124.466 14.0077C123.854 13.4042 123.116 13.1067 122.224 13.1067C121.597 13.1067 121.053 13.2436 120.574 13.5068C120.104 13.7688 119.735 14.1448 119.467 14.6262C119.2 15.1047 119.067 15.6551 119.067 16.2834C119.067 16.9116 119.2 17.462 119.467 17.9405C119.734 18.4205 120.103 18.7905 120.575 19.0608C121.046 19.3229 121.596 19.4601 122.224 19.4601C122.666 19.4601 123.094 19.3783 123.501 19.215C123.911 19.0508 124.269 18.8264 124.578 18.5285L124.727 18.3844L126.02 19.7053L125.872 19.8475C124.885 20.7981 123.651 21.2714 122.187 21.2714C121.204 21.2714 120.318 21.0624 119.543 20.6388C118.769 20.2156 118.163 19.6176 117.726 18.8631L117.726 18.8624L117.726 18.8618C117.296 18.1059 117.076 17.24 117.076 16.2834C117.076 15.3208 117.288 14.4615 117.726 13.7043C118.155 12.949 118.762 12.3508 119.543 11.9277Z" fill="#9A9A9A"/>
<path d="M134.858 20.886L134.001 18.9785H128.981L128.123 20.886H126.438L130.63 11.6736H132.367L136.544 20.886H134.858ZM131.494 13.2271L129.582 17.584H133.4L131.494 13.2271Z" fill="#9A9A9A"/>
<path fill-rule="evenodd" clip-rule="evenodd" d="M130.496 11.4688H132.502L136.865 21.0908H134.724L133.866 19.1833H129.116L128.259 21.0908H126.117L130.496 11.4688ZM130.765 11.8784L126.759 20.6812H127.989L128.846 18.7737H134.137L134.994 20.6812H136.224L132.232 11.8784H130.765ZM131.495 12.7106L133.716 17.7888H129.266L131.495 12.7106ZM129.898 17.3792H133.085L131.495 13.7435L129.898 17.3792Z" fill="#9A9A9A"/>
<path d="M138.062 11.6736H139.624V19.4554H144.549V20.8932H138.062V11.6736Z" fill="#9A9A9A"/>
<path fill-rule="evenodd" clip-rule="evenodd" d="M137.854 11.4688H139.83V19.2505H144.755V21.098H137.854V11.4688ZM138.269 11.8784V20.6884H144.34V19.6602H139.415V11.8784H138.269Z" fill="#9A9A9A"/>
<path d="M89.903 31.4422V35.3512C89.39 35.857 88.8183 36.2399 88.188 36.4928C87.5577 36.7457 86.8615 36.8685 86.0993 36.8685C85.1392 36.8685 84.289 36.6734 83.5635 36.276C82.8306 35.8786 82.2663 35.3223 81.8705 34.5997C81.4674 33.8772 81.2695 33.039 81.2695 32.0781C81.2695 31.146 81.4821 30.3223 81.8998 29.5997C82.3176 28.8772 82.9039 28.3064 83.6514 27.9018C84.399 27.4971 85.2565 27.2876 86.2165 27.2876C86.8835 27.2876 87.5138 27.4104 88.1074 27.6489C88.701 27.8873 89.2287 28.2414 89.6905 28.711L88.6864 29.7009C88.3712 29.3974 87.9975 29.1518 87.5504 28.9783C87.1033 28.8049 86.6563 28.7182 86.2019 28.7182C85.5423 28.7182 84.9633 28.8555 84.4503 29.1373C83.9446 29.4191 83.5488 29.8165 83.263 30.3223C82.9772 30.8281 82.8379 31.4205 82.8379 32.0853C82.8379 32.7645 82.9698 33.357 83.241 33.8627C83.5049 34.3685 83.886 34.7659 84.3843 35.0405C84.8754 35.3151 85.4543 35.4523 86.1139 35.4523C87.0374 35.4523 87.8289 35.1994 88.4738 34.7009V32.8006H85.8574V31.4422H89.903Z" fill="#9A9A9A"/>
<path fill-rule="evenodd" clip-rule="evenodd" d="M86.2173 27.4924C85.2887 27.4924 84.4662 27.6948 83.7521 28.0813C83.0382 28.4677 82.4798 29.0114 82.081 29.7011C81.6829 30.3898 81.478 31.1779 81.478 32.078C81.478 33.0107 81.6698 33.8137 82.0532 34.501L82.0536 34.5017L82.054 34.5024C82.4305 35.1897 82.9658 35.7178 83.6643 36.0966L83.6651 36.097C84.3545 36.4746 85.1687 36.6637 86.1 36.6637C86.8393 36.6637 87.5084 36.5446 88.1104 36.3031C88.6883 36.0712 89.2168 35.7243 89.6959 35.2655V31.647H86.0659V32.5958H88.6823V34.8005L88.6027 34.8621C87.9168 35.3923 87.0786 35.6571 86.1147 35.6571C85.4257 35.6571 84.8103 35.5136 84.2831 35.2189C83.7481 34.924 83.3391 34.4968 83.0575 33.9574C82.7678 33.4167 82.6309 32.7903 82.6309 32.0853C82.6309 31.3922 82.7762 30.7641 83.0822 30.2226C83.3861 29.6849 83.8089 29.2598 84.3488 28.959L84.3493 28.9587L84.3499 28.9584C84.8978 28.6574 85.5125 28.5134 86.2026 28.5134C86.6847 28.5134 87.1575 28.6056 87.6272 28.7877C88.0314 28.9445 88.3799 29.1576 88.6813 29.4169L89.3966 28.7117C88.9901 28.3319 88.5347 28.0413 88.0297 27.8385C87.4613 27.6102 86.8576 27.4924 86.2173 27.4924ZM83.5522 27.7222C84.3332 27.2995 85.2256 27.0828 86.2173 27.0828C86.9108 27.0828 87.5677 27.2106 88.1865 27.4592C88.8077 27.7087 89.3593 28.0791 89.8403 28.5684L89.9827 28.7132L88.6888 29.9888L88.5419 29.8474C88.2461 29.5625 87.8957 29.3321 87.4751 29.1689C87.0506 29.0043 86.6293 28.923 86.2026 28.923C85.5737 28.923 85.0306 29.0535 84.5527 29.3159C84.0814 29.5786 83.7129 29.9483 83.4452 30.4219C83.1796 30.892 83.0464 31.4489 83.0464 32.0853C83.0464 32.7382 83.1731 33.2964 83.4254 33.767L83.4259 33.768L83.4265 33.7691C83.6724 34.2406 84.0253 34.6076 84.4864 34.8617L84.487 34.862L84.4875 34.8623C84.9422 35.1166 85.4847 35.2475 86.1147 35.2475C86.9592 35.2475 87.6774 35.027 88.2668 34.5993V33.0054H85.6504V31.2374H90.1114V35.436L90.0506 35.496C89.5197 36.0193 88.9252 36.4184 88.2671 36.6825C87.6085 36.9467 86.8851 37.0733 86.1 37.0733C85.1113 37.0733 84.2253 36.8723 83.4637 36.4553C82.6968 36.0394 82.1038 35.455 81.6888 34.6978C81.2663 33.9401 81.0625 33.067 81.0625 32.078C81.0625 31.114 81.2827 30.2547 81.72 29.4983C82.1568 28.7429 82.771 28.145 83.5522 27.7222Z" fill="#9A9A9A"/>
<path d="M95.4812 33.5376H93.5904V36.6807H92.0293V27.4683H96.412C97.0716 27.4683 97.6506 27.5911 98.1563 27.844C98.662 28.0969 99.0431 28.4509 99.3142 28.9133C99.5854 29.3758 99.7247 29.9105 99.7247 30.5102C99.7247 31.2761 99.5121 31.9119 99.0797 32.4321C98.6473 32.9524 98.061 33.2847 97.3134 33.4437L100.157 36.6807H98.2076L95.4812 33.5376ZM97.6945 29.3252C97.3794 29.0362 96.947 28.8917 96.39 28.8917H93.5757V32.1287H96.39C96.9397 32.1287 97.3794 31.9842 97.6945 31.7024C98.0097 31.4206 98.1709 31.0232 98.1709 30.5102C98.1709 30.0044 98.0097 29.6142 97.6945 29.3252Z" fill="#9A9A9A"/>
<path fill-rule="evenodd" clip-rule="evenodd" d="M91.8223 27.2634H96.4127C97.0989 27.2634 97.7112 27.3914 98.251 27.6613C98.7914 27.9316 99.2028 28.3129 99.4948 28.8108C99.7861 29.3075 99.9331 29.8782 99.9331 30.5101C99.9331 31.3162 99.7083 31.9999 99.2411 32.5619C98.8424 33.0416 98.324 33.3696 97.6905 33.5592L100.613 36.8855H98.1126L95.3862 33.7424H93.7988V36.8855H91.8223V27.2634ZM92.2378 27.6731V36.4759H93.3833V33.3328H95.5776L98.304 36.4759H99.703L96.9275 33.3164L97.2704 33.2435C97.9789 33.0928 98.5213 32.7817 98.9197 32.3023C99.3174 31.8239 99.5176 31.2359 99.5176 30.5101C99.5176 29.9426 99.3862 29.444 99.1351 29.0158C98.8847 28.5889 98.534 28.2622 98.063 28.0266C97.5914 27.7908 97.0457 27.6731 96.4127 27.6731H92.2378ZM93.3687 28.6868H96.3907C96.9847 28.6868 97.4732 28.8417 97.8368 29.1752C98.2008 29.5091 98.3794 29.9571 98.3794 30.5101C98.3794 31.0683 98.2021 31.5257 97.8348 31.8541C97.4716 32.1788 96.9769 32.3335 96.3907 32.3335H93.3687V28.6868ZM93.7842 29.0965V31.9238H96.3907C96.9039 31.9238 97.2886 31.7894 97.5557 31.5506C97.8188 31.3154 97.9639 30.978 97.9639 30.5101C97.9639 30.0517 97.82 29.7193 97.5538 29.4751C97.2871 29.2306 96.9107 29.0965 96.3907 29.0965H93.7842Z" fill="#9A9A9A"/>
<path d="M103.646 36.2833C102.913 35.8859 102.348 35.3223 101.953 34.5926C101.549 33.8628 101.352 33.0246 101.352 32.0781C101.352 31.1316 101.549 30.2934 101.953 29.5637C102.356 28.8339 102.92 28.2703 103.646 27.8729C104.378 27.4755 105.214 27.2732 106.167 27.2732C107.112 27.2732 107.948 27.4755 108.68 27.8729C109.413 28.2703 109.978 28.8339 110.373 29.5637C110.777 30.2934 110.974 31.1316 110.974 32.0781C110.974 33.0246 110.777 33.8628 110.373 34.5926C109.97 35.3223 109.406 35.8859 108.68 36.2833C107.948 36.6807 107.112 36.883 106.167 36.883C105.214 36.8758 104.371 36.6807 103.646 36.2833ZM107.845 35.0333C108.336 34.7515 108.717 34.3541 108.988 33.8411C109.259 33.3353 109.399 32.7428 109.399 32.0781C109.399 31.4134 109.259 30.8209 108.988 30.3151C108.717 29.8093 108.336 29.4119 107.845 29.1229C107.354 28.8411 106.797 28.6966 106.159 28.6966C105.522 28.6966 104.95 28.8411 104.466 29.1229C103.975 29.4047 103.594 29.8021 103.323 30.3151C103.052 30.8209 102.913 31.4134 102.913 32.0781C102.913 32.7428 103.045 33.3353 103.323 33.8411C103.594 34.3469 103.975 34.7443 104.466 35.0333C104.957 35.3151 105.522 35.4596 106.159 35.4596C106.797 35.4596 107.361 35.3151 107.845 35.0333Z" fill="#9A9A9A"/>
<path fill-rule="evenodd" clip-rule="evenodd" d="M106.165 27.478C105.244 27.478 104.444 27.6733 103.745 28.0521C103.054 28.4303 102.518 28.9655 102.134 29.6616C101.75 30.3569 101.558 31.1603 101.558 32.0781C101.558 32.9958 101.75 33.7993 102.134 34.4946L102.134 34.4953L102.135 34.496C102.511 35.1909 103.047 35.7256 103.744 36.1038L103.745 36.1042C104.435 36.482 105.242 36.6711 106.166 36.6782C107.08 36.6781 107.88 36.4828 108.579 36.104C109.269 35.7258 109.805 35.1907 110.19 34.4946C110.574 33.7993 110.765 32.9958 110.765 32.0781C110.765 31.1603 110.574 30.3569 110.19 29.6616L110.189 29.6609L110.189 29.6602C109.812 28.9653 109.277 28.4306 108.579 28.0523C107.88 27.6733 107.08 27.478 106.165 27.478ZM103.544 27.6934C104.311 27.2776 105.182 27.0684 106.165 27.0684C107.142 27.0684 108.013 27.2777 108.779 27.6934C109.547 28.1099 110.14 28.7021 110.555 29.4664C110.977 30.2305 111.181 31.1031 111.181 32.0781C111.181 33.0534 110.977 33.9262 110.555 34.6905C110.133 35.4538 109.541 36.0458 108.78 36.4623L108.779 36.4628C108.013 36.8785 107.142 37.0878 106.165 37.0878H106.165L106.164 37.0878C105.183 37.0804 104.305 36.8793 103.544 36.4626C102.776 36.0461 102.183 35.454 101.768 34.6898C101.347 33.9257 101.143 33.0531 101.143 32.0781C101.143 31.1028 101.347 30.2299 101.769 29.4657C102.19 28.7024 102.783 28.1104 103.543 27.6938L103.544 27.6934L103.544 27.6934ZM104.36 28.9462C104.88 28.6437 105.488 28.4918 106.158 28.4918C106.829 28.4918 107.423 28.6443 107.948 28.9459L107.949 28.9464L107.95 28.947C108.474 29.2556 108.882 29.6809 109.171 30.2194C109.46 30.7587 109.605 31.3849 109.605 32.0781C109.605 32.771 109.46 33.3971 109.171 33.9363C108.882 34.482 108.474 34.9082 107.949 35.21C107.43 35.5123 106.828 35.6644 106.158 35.6644C105.487 35.6644 104.886 35.512 104.361 35.2103L104.36 35.2097L104.359 35.2091C103.835 34.9008 103.427 34.4758 103.139 33.9378C102.841 33.3963 102.704 32.769 102.704 32.0781C102.704 31.3851 102.849 30.7591 103.138 30.2199C103.426 29.6742 103.834 29.248 104.36 28.9462ZM106.158 28.9014C105.553 28.9014 105.019 29.0384 104.571 29.2992L104.57 29.2996L104.57 29.2999C104.114 29.5616 103.76 29.9299 103.506 30.4097L103.506 30.4103L103.505 30.4108C103.252 30.883 103.119 31.4418 103.119 32.0781C103.119 32.7162 103.246 33.2736 103.504 33.7434L103.505 33.7444L103.505 33.7454C103.759 34.2182 104.113 34.5874 104.571 34.8568C105.027 35.1183 105.554 35.2548 106.158 35.2548C106.763 35.2548 107.29 35.118 107.738 34.857L107.739 34.8566L107.739 34.8563C108.195 34.5946 108.549 34.2263 108.803 33.7464L108.803 33.7459L108.803 33.7454C109.057 33.2732 109.19 32.7144 109.19 32.0781C109.19 31.4418 109.057 30.883 108.803 30.4108C108.55 29.938 108.196 29.5688 107.738 29.2993C107.282 29.0376 106.762 28.9014 106.158 28.9014Z" fill="#9A9A9A"/>
<path d="M114.734 36.3772C114.125 36.0521 113.664 35.5896 113.341 34.9899C113.019 34.3902 112.857 33.6821 112.857 32.8657V27.4683H114.404V32.8368C114.404 33.6388 114.624 34.2674 115.071 34.737C115.518 35.2067 116.111 35.4379 116.859 35.4379C117.607 35.4379 118.2 35.2067 118.647 34.737C119.094 34.2674 119.314 33.6316 119.314 32.8368V27.4683H120.861V32.8657C120.861 33.6821 120.699 34.3902 120.377 34.9899C120.054 35.5896 119.585 36.0521 118.984 36.3772C118.376 36.7024 117.673 36.8613 116.859 36.8613C116.053 36.8686 115.342 36.7024 114.734 36.3772Z" fill="#9A9A9A"/>
<path fill-rule="evenodd" clip-rule="evenodd" d="M112.65 27.2634H114.612V32.8367C114.612 33.6003 114.82 34.1741 115.223 34.5969C115.625 35.0188 116.16 35.2331 116.86 35.2331C117.559 35.2331 118.095 35.0188 118.496 34.5969C118.899 34.1742 119.107 33.5934 119.107 32.8367V27.2634H121.069V32.8656C121.069 33.7088 120.902 34.4512 120.561 35.0858C120.219 35.7217 119.721 36.2128 119.085 36.5568L119.085 36.557L119.084 36.5573C118.44 36.9013 117.702 37.066 116.861 37.0661C116.024 37.0735 115.278 36.9008 114.635 36.5573C113.991 36.2127 113.5 35.7209 113.158 35.0858C112.817 34.4512 112.65 33.7088 112.65 32.8656V27.2634ZM113.066 27.6731V32.8656C113.066 33.6554 113.222 34.3293 113.525 34.894C113.829 35.4584 114.261 35.8914 114.833 36.1971C115.407 36.5037 116.082 36.6634 116.858 36.6565L116.859 36.6565H116.86C117.645 36.6565 118.313 36.5033 118.886 36.1974C119.452 35.8911 119.891 35.4574 120.194 34.894C120.498 34.3293 120.654 33.6554 120.654 32.8656V27.6731H119.523V32.8367C119.523 33.6697 119.291 34.3605 118.799 34.8772C118.307 35.3945 117.655 35.6427 116.86 35.6427C116.064 35.6427 115.412 35.3945 114.92 34.8772C114.428 34.3607 114.197 33.6772 114.197 32.8367V27.6731H113.066Z" fill="#9A9A9A"/>
<path d="M129.436 27.8657C129.941 28.133 130.337 28.5087 130.616 28.9928C130.894 29.4769 131.033 30.0405 131.033 30.6764C131.033 31.3194 130.894 31.8758 130.616 32.3599C130.337 32.844 129.941 33.2197 129.436 33.487C128.93 33.7544 128.336 33.8917 127.662 33.8917H124.87V36.6807H123.309V27.4683H127.662C128.336 27.4683 128.93 27.5983 129.436 27.8657ZM128.974 31.9986C129.318 31.6662 129.494 31.2255 129.494 30.6764C129.494 30.1344 129.318 29.6937 128.974 29.3686C128.629 29.0362 128.16 28.8772 127.589 28.8772H124.862V32.4972H127.589C128.16 32.4972 128.622 32.331 128.974 31.9986Z" fill="#9A9A9A"/>
<path fill-rule="evenodd" clip-rule="evenodd" d="M123.102 27.2634H127.663C128.364 27.2634 128.993 27.3988 129.534 27.6851C130.074 27.9701 130.498 28.3729 130.797 28.8918C131.096 29.411 131.242 30.0104 131.242 30.6763C131.242 31.3497 131.096 31.9418 130.797 32.4609C130.498 32.9798 130.074 33.3826 129.534 33.6675C128.994 33.9531 128.366 34.0965 127.663 34.0965H125.078V36.8855H123.102V27.2634ZM123.517 27.6731V36.4759H124.663V33.6868H127.663C128.308 33.6868 128.867 33.5556 129.338 33.3065C129.81 33.0568 130.177 32.7081 130.436 32.2588C130.694 31.8097 130.826 31.2891 130.826 30.6763C130.826 30.0706 130.694 29.5428 130.436 29.0939C130.177 28.6445 129.81 28.2958 129.338 28.0461C128.868 27.7978 128.31 27.6731 127.663 27.6731H123.517ZM124.655 28.6724H127.589C128.201 28.6724 128.727 28.8432 129.119 29.2214C129.51 29.5909 129.703 30.088 129.703 30.6763C129.703 31.2724 129.51 31.7687 129.12 32.145L129.119 32.1457L129.118 32.1465C128.721 32.5216 128.205 32.702 127.589 32.702H124.655V28.6724ZM125.071 29.082V32.2923H127.589C128.117 32.2923 128.524 32.1405 128.83 31.8515C129.128 31.5631 129.287 31.1781 129.287 30.6763C129.287 30.1812 129.128 29.7971 128.831 29.5165L128.83 29.5157L128.829 29.5149C128.533 29.2289 128.121 29.082 127.589 29.082H125.071Z" fill="#9A9A9A"/>
</svg>
