<svg width="144" height="44" viewBox="0 0 144 44" fill="none" xmlns="http://www.w3.org/2000/svg">
<g clip-path="url(#clip0_3711_39485)">
<path d="M4.75601 30.9923H12.8795C12.457 29.8014 11.6103 28.8041 10.498 28.1874C9.25361 27.5172 7.85225 27.1853 6.43622 27.225C5.65812 27.2289 4.88533 27.3519 4.1451 27.5894C3.35309 27.841 2.60912 28.2221 1.94407 28.7167L0.138822 25.2107C1.00646 24.4918 1.99302 23.9266 3.05498 23.5401C4.50719 23.0196 6.04486 22.7725 7.58886 22.8113C9.01426 22.7962 10.4291 23.0554 11.7547 23.5746C12.9923 24.0624 14.1168 24.7946 15.0597 25.7262C16.0116 26.6777 16.7561 27.8125 17.2467 29.0605C17.7856 30.4461 18.0518 31.9208 18.0313 33.4053C18.0455 34.9094 17.7796 36.4033 17.2467 37.812C16.7704 39.0739 16.0134 40.2135 15.0319 41.1462C14.0308 42.0636 12.8488 42.7659 11.5603 43.2087C10.0802 43.7392 8.5172 44.0069 6.94313 43.9993C6.21511 44.0026 5.48821 43.9451 4.76991 43.8274C4.11266 43.7014 3.46524 43.5292 2.83285 43.3118C2.26716 43.131 1.71888 42.901 1.19423 42.6244C0.763182 42.416 0.361751 42.1525 0 41.8407L2.00659 37.8945C2.63355 38.3949 3.33658 38.7941 4.08948 39.077C4.98628 39.4283 5.94413 39.6012 6.90842 39.5857C7.58433 39.5878 8.25798 39.5093 8.91501 39.352C9.55115 39.2027 10.1584 38.9519 10.7132 38.6095C11.2683 38.2641 11.7573 37.8242 12.1575 37.3102C12.5942 36.7358 12.9063 36.078 13.0739 35.3783H4.7421L4.75601 30.9923Z" fill="#9A9A9A"/>
<path d="M20.0312 23.1621H24.7596V32.0992L31.5222 23.1621H37.1947L29.4184 32.601L37.8056 43.6007H31.8138L24.7525 33.8935V43.6282H20.0312V23.1621Z" fill="#9A9A9A"/>
<path d="M35.5484 33.3918C35.5413 31.9785 35.8124 30.5774 36.3469 29.267C36.8575 27.9962 37.6255 26.8423 38.6034 25.8764C39.5813 24.9104 40.7487 24.1529 42.0333 23.6503C43.4585 23.0821 44.9822 22.7949 46.5186 22.8048C48.0063 22.7901 49.4851 23.0367 50.8858 23.5335C52.175 23.9946 53.356 24.7103 54.3574 25.6372C55.3562 26.5737 56.1422 27.7104 56.6624 28.9713C57.2314 30.3736 57.5124 31.874 57.4886 33.3849C57.5061 34.8529 57.2251 36.3095 56.6624 37.6678C56.135 38.9292 55.3503 40.069 54.3574 41.016C53.3571 41.9626 52.1771 42.7033 50.8858 43.1952C49.4938 43.7315 48.0122 44.0044 46.5186 43.9995C45.0308 44.0144 43.5521 43.7677 42.1513 43.2709C40.8619 42.8102 39.6807 42.0945 38.6797 41.1671C37.6777 40.2252 36.8916 39.0811 36.3746 37.8122C35.8041 36.4081 35.5233 34.9052 35.5484 33.3918ZM40.5683 33.3918C40.5615 34.2326 40.722 35.0666 41.0404 35.8461C41.337 36.5739 41.7679 37.2406 42.311 37.8122C42.8443 38.3684 43.487 38.8107 44.1995 39.1116C44.9362 39.4251 45.7305 39.5843 46.5325 39.5791C47.4177 39.5978 48.2974 39.434 49.1152 39.0978C49.8211 38.8059 50.4556 38.3675 50.976 37.8122C51.4888 37.2393 51.8766 36.5676 52.1148 35.8392C52.3736 35.0561 52.5026 34.2365 52.4966 33.4124C52.5076 32.5435 52.352 31.6804 52.0383 30.8688C51.7559 30.1257 51.3236 29.4474 50.7678 28.8752C50.2286 28.3297 49.5808 27.9011 48.8653 27.617C48.1182 27.327 47.3209 27.1847 46.5186 27.1977C45.6988 27.1888 44.8851 27.3382 44.1232 27.6377C43.4177 27.9157 42.779 28.3372 42.2486 28.8752C41.7047 29.4383 41.2819 30.1049 41.0057 30.8345C40.7011 31.6527 40.5527 32.5199 40.5683 33.3918Z" fill="#9A9A9A"/>
<path d="M71.784 35.3784H64.2576V43.6282H59.5293V23.1621H64.2576V30.9992H71.7909V23.1621H76.5121V43.6282H71.7909L71.784 35.3784Z" fill="#9A9A9A"/>
<path d="M78.875 43.6282V23.1621H83.6032V35.8803L92.7544 23.1621H96.9194V43.6282H92.1922V30.9374L83.0408 43.6557L78.875 43.6282Z" fill="#606060"/>
<path d="M121.276 23.1621H125.491L134.072 43.6282H129.052L127.337 39.3315H119.137L117.422 43.6282H112.701L121.276 23.1621ZM120.915 34.9454H125.559L123.247 29.1568L120.915 34.9454Z" fill="#9A9A9A"/>
<path d="M20.0305 0.351807H35.6873V4.73784H24.7519V8.33329H34.7986V12.7193H24.7519V16.4317H35.9789V20.8179H20.0098L20.0305 0.351807Z" fill="#9A9A9A"/>
<path d="M38.416 0.351807H43.1444V9.28886L49.9069 0.351807H55.5447L47.8032 9.79761L56.1904 20.7972H50.1986L43.1375 11.0832V20.8179H38.416V0.351807Z" fill="#9A9A9A"/>
<path d="M54.684 10.5882C54.6769 9.17501 54.948 7.77389 55.4825 6.46336C55.99 5.18745 56.7565 4.02824 57.7346 3.05747C58.7127 2.08658 59.8816 1.32487 61.1689 0.819235C62.6026 0.257788 64.1334 -0.0201732 65.6751 0.00113899C67.1629 -0.0135202 68.6416 0.233206 70.0423 0.729928C71.3313 1.19102 72.5125 1.90672 73.5139 2.83352C74.5203 3.77475 75.311 4.91873 75.8328 6.18844C76.4019 7.59054 76.6828 9.09097 76.6591 10.602C76.6766 12.07 76.3955 13.5266 75.8328 14.8849C75.3055 16.1461 74.5206 17.2859 73.5277 18.2329C72.5275 19.1797 71.3476 19.9204 70.0561 20.4121C68.6622 20.9392 67.1808 21.2026 65.6889 21.1891C64.2011 21.2039 62.7223 20.9571 61.3217 20.4603C60.0323 19.9997 58.8511 19.2839 57.8502 18.3567C56.8481 17.4146 56.062 16.2706 55.545 15.0018C54.9635 13.6021 54.6708 12.1016 54.684 10.5882ZM59.7039 10.5882C59.6944 11.436 59.8548 12.2772 60.1761 13.0631C60.472 13.7933 60.9029 14.4624 61.4466 15.0362C61.98 15.5924 62.6226 16.0346 63.3352 16.3355C64.0719 16.649 64.8662 16.8081 65.668 16.803C66.5535 16.8217 67.4331 16.6578 68.2509 16.3218C68.9663 16.0175 69.6061 15.5623 70.1256 14.988C70.6384 14.415 71.026 13.7433 71.2642 13.015C71.5231 12.2319 71.6521 11.4123 71.6461 10.5882C71.657 9.71932 71.5017 8.85619 71.1879 8.04453C70.9014 7.31371 70.4693 6.64739 69.9173 6.08526C69.3774 5.53397 68.7271 5.10074 68.0079 4.81342C67.2665 4.5182 66.4742 4.36868 65.6751 4.37353C64.8553 4.36451 64.0416 4.51403 63.2797 4.81342C62.5674 5.09578 61.9237 5.52461 61.3911 6.07151C60.8473 6.63465 60.4245 7.30119 60.1483 8.03077C59.8436 8.84909 59.6953 9.71621 59.7109 10.5882H59.7039Z" fill="#9A9A9A"/>
<path d="M93.1075 20.8179L83.3186 8.53953V20.8179H78.875V0.351807H82.6242L92.4288 12.6919V0.351807H96.8579V20.8179H93.1075Z" fill="#606060"/>
<path d="M99.2441 0.351807H103.965V20.8179H99.2441V0.351807Z" fill="#9A9A9A"/>
<path d="M130.774 0.351807H134.989L143.57 20.8179H138.55L136.835 16.5005H128.635L126.92 20.7972H122.199L130.774 0.351807ZM130.413 12.135H135.057L132.752 6.34651L130.413 12.135Z" fill="#9A9A9A"/>
<path d="M122.491 0.351807L116.436 14.7955L110.381 0.351807H105.326L113.908 20.8179H118.963L127.545 0.351807H122.491Z" fill="#9A9A9A"/>
<path d="M99.2441 23.2171L100.396 23.1622L101.959 23.1004L103.729 23.0591H105.5C106.571 23.0366 107.64 23.1686 108.673 23.451C109.458 23.6656 110.192 24.0324 110.832 24.5303C111.369 24.952 111.792 25.5004 112.062 26.1253C112.317 26.7566 112.447 27.4315 112.443 28.112C112.473 29.0485 112.267 29.9776 111.839 30.8138C111.416 31.5655 110.813 32.2029 110.083 32.67V32.7319C110.473 32.8781 110.839 33.0796 111.172 33.33C111.535 33.6012 111.854 33.9258 112.117 34.2924C112.422 34.7109 112.655 35.1751 112.811 35.6673C112.987 36.2399 113.07 36.8361 113.061 37.4341C113.086 38.3943 112.886 39.3472 112.477 40.2185C112.093 40.9967 111.527 41.6731 110.825 42.1915C110.078 42.7358 109.232 43.1326 108.333 43.3602C107.315 43.621 106.267 43.7482 105.216 43.7383H103.618H101.952L100.432 43.6969C99.9586 43.6969 99.578 43.6489 99.2781 43.6077L99.2441 23.2171ZM105.444 27.4246C105.148 27.4246 104.898 27.4246 104.694 27.4246L104.001 27.5139V31.2262H105.534C106.085 31.2426 106.626 31.0887 107.083 30.7863C107.309 30.6003 107.485 30.3617 107.595 30.0918C107.706 29.8218 107.747 29.5289 107.715 29.2396C107.731 28.9701 107.676 28.7014 107.553 28.4601C107.431 28.2188 107.249 28.0134 107.021 27.8646C106.551 27.5675 106.002 27.4145 105.444 27.4246ZM103.965 35.3511V39.1872C104.125 39.2284 104.313 39.2628 104.542 39.3041C104.879 39.3495 105.222 39.3679 105.563 39.3591C106.303 39.419 107.041 39.2169 107.645 38.7886C107.877 38.5927 108.058 38.3472 108.179 38.0706C108.3 37.7942 108.355 37.4942 108.34 37.1936C108.354 36.9244 108.299 36.6562 108.177 36.4151C108.054 36.1739 107.871 35.9684 107.645 35.8186C107.09 35.4991 106.453 35.3463 105.812 35.3786L103.965 35.3511Z" fill="#9A9A9A"/>
</g>
<defs>
<clipPath id="clip0_3711_39485">
<rect width="144" height="44" fill="white"/>
</clipPath>
</defs>
</svg>
