<svg width="115" height="44" viewBox="0 0 115 44" fill="none" xmlns="http://www.w3.org/2000/svg">
<g clip-path="url(#clip0_3711_39427)">
<mask id="mask0_3711_39427" style="mask-type:luminance" maskUnits="userSpaceOnUse" x="0" y="0" width="115" height="44">
<path d="M115 0H0V44H115V0Z" fill="white"/>
</mask>
<g mask="url(#mask0_3711_39427)">
<path fill-rule="evenodd" clip-rule="evenodd" d="M115 4C115 1.792 113.208 0 111 0H4C1.792 0 0 1.792 0 4V40C0 42.208 1.792 44 4 44H111C113.208 44 115 42.208 115 40V4Z" fill="#9A9A9A"/>
<path d="M98.3337 10.5901H95.6797V28.6091H98.3337V10.5901Z" fill="white"/>
<path fill-rule="evenodd" clip-rule="evenodd" d="M92.8124 28.6091H90.1584V15.8401H92.8124V28.6091ZM91.4854 10.1421C92.4744 10.1421 93.2774 10.9451 93.2774 11.9341C93.2774 12.9231 92.4744 13.7261 91.4854 13.7261C90.4964 13.7261 89.6934 12.9231 89.6934 11.9341C89.6934 10.9451 90.4964 10.1421 91.4854 10.1421Z" fill="white"/>
<path fill-rule="evenodd" clip-rule="evenodd" d="M87.2909 28.609H84.6828V27.212C83.7478 28.271 82.1009 28.937 80.5519 28.937C76.8479 28.937 73.8398 25.929 73.8398 22.224C73.8398 18.52 76.8479 15.512 80.5519 15.512C82.1009 15.512 83.6608 16.096 84.6828 17.127V15.84H87.2909V28.609ZM80.6368 18.195C82.9209 18.195 84.7179 19.829 84.7179 22.224C84.7179 24.619 82.9209 26.268 80.6368 26.268C78.3528 26.268 76.6168 24.509 76.6168 22.224C76.6168 19.94 78.3528 18.195 80.6368 18.195Z" fill="white"/>
<path fill-rule="evenodd" clip-rule="evenodd" d="M54.361 28.609H51.752V15.84H54.361V16.732C54.94 16.187 56.026 15.514 57.532 15.512C59.384 15.512 60.764 16.291 61.709 17.544C62.743 16.303 64.448 15.512 66.185 15.512C69.445 15.512 71.667 17.713 71.667 21.143V28.609H69.058V21.143C69.058 19.477 67.702 18.121 66.036 18.121C64.369 18.121 63.014 19.477 63.014 21.143V28.609H60.405V21.143C60.405 19.477 59.049 18.121 57.383 18.121C55.717 18.121 54.361 19.477 54.361 21.143V28.609Z" fill="white"/>
<path d="M34.211 22C34.211 24.322 32.322 26.211 30 26.211C27.678 26.211 25.789 24.322 25.789 22C25.789 19.678 27.678 17.789 30 17.789C32.322 17.789 34.211 19.678 34.211 22ZM30 8C22.28 8 16 14.28 16 22C16 29.72 22.28 36 30 36C32.828 36 35.555 35.158 37.886 33.565L37.926 33.537L36.04 31.345L36.008 31.365C34.214 32.52 32.136 33.13 30 33.13C23.863 33.13 18.87 28.137 18.87 22C18.87 15.863 23.863 10.87 30 10.87C36.137 10.87 41.13 15.863 41.13 22C41.13 22.795 41.041 23.6 40.868 24.392C40.516 25.837 39.504 26.279 38.745 26.221C37.981 26.159 37.087 25.615 37.081 24.283V23.268V22C37.081 18.095 33.905 14.919 30 14.919C26.095 14.919 22.919 18.095 22.919 22C22.919 25.905 26.095 29.081 30 29.081C31.897 29.081 33.676 28.34 35.017 26.991C35.797 28.205 37.068 28.966 38.515 29.082C38.639 29.092 38.766 29.097 38.891 29.097C39.91 29.097 40.919 28.756 41.733 28.139C42.572 27.501 43.199 26.58 43.545 25.473C43.6 25.294 43.702 24.885 43.702 24.882L43.705 24.867C43.909 23.979 44 23.094 44 22C44 14.28 37.72 8 30 8Z" fill="#606060"/>
</g>
</g>
<defs>
<clipPath id="clip0_3711_39427">
<rect width="115" height="44" fill="white"/>
</clipPath>
</defs>
</svg>
