<svg width="153" height="44" viewBox="0 0 153 44" fill="none" xmlns="http://www.w3.org/2000/svg">
<g clip-path="url(#clip0_3711_39500)">
<path d="M131.683 27.0039L132.972 27.1765C132.027 30.8 126.182 29.5059 126.698 25.9686C127.213 22.4314 131.597 21.1373 132.972 24.3294L131.683 24.8471C131.52 24.3846 131.186 24.0033 130.749 23.7832C130.312 23.563 129.808 23.521 129.341 23.666C128.874 23.8111 128.481 24.1318 128.245 24.5611C128.009 24.9903 127.947 25.4948 128.073 25.9686C127.729 28.0392 130.995 29.2471 131.683 27.0039ZM84.6657 36.8392C85.5253 36.7529 87.5882 37.1843 87.5023 35.8902C87.4163 34.5961 85.5253 35.0275 84.6657 34.9412V36.8392ZM83.3764 37.9608V31.4039H88.5337V32.5255H84.6657V33.8196H86.5567C89.6511 33.5608 89.5652 38.2196 86.5567 37.9608H83.3764ZM89.6511 37.9608V31.4039H91.0264V36.8392H91.1983L93.0034 31.4039H95.4961V37.9608H94.1208V32.5255H93.9489L92.1438 37.9608H89.6511ZM97.9888 34.7686C99.0202 34.7686 100.911 35.0275 100.825 33.6471C100.739 32.2667 98.9343 32.6118 97.9888 32.5255V34.7686ZM96.6994 37.9608V31.4039H99.6219C103.232 31.4902 103.318 36.5804 97.9888 35.8039V37.9608H96.6994ZM102.201 37.9608L104.349 34.5098L102.201 31.4039H103.834L105.467 33.9922H105.983V31.4039H107.272V33.9922H107.874L109.421 31.4039H111.054L108.905 34.5098L111.14 37.9608H109.593L107.874 35.1137H107.272V37.9608H105.983V35.1137H105.467L103.748 37.9608H102.201ZM113.633 35.2H115.696L114.836 32.5255H114.492L113.633 35.2ZM111.398 37.9608L113.719 31.4039H115.696L118.016 37.9608H116.641L116.039 36.3216H113.289L112.687 37.9608H111.398ZM83.2905 29.2471V22.6902H85.8691L87.0725 28.1255H87.2444L88.3618 22.6902H90.8545V29.2471H89.5652V23.8118H89.3933L88.2758 29.2471H86.041L84.8376 23.8118H84.6657V29.2471H83.2905ZM95.2382 28.2118C98.0747 28.298 97.9888 23.5529 95.1522 23.6392C92.3157 23.7255 92.4017 28.298 95.2382 28.2118ZM95.2382 29.3333C90.5966 29.5059 90.5966 22.3451 95.2382 22.5176C99.8798 22.6902 99.7938 29.5059 95.2382 29.3333ZM104.349 27.0039L105.725 27.1765C104.779 30.8 98.9343 29.5059 99.45 25.9686C99.9657 22.4314 104.349 21.1373 105.639 24.3294L104.349 24.8471C103.49 22.6902 100.481 23.8118 100.825 25.9686C101.169 28.1255 103.662 29.2471 104.349 27.0039ZM106.67 29.2471V22.6902H108.046V25.1922H108.733L110.882 22.6902H112.515L109.937 25.7098L112.687 29.2471H111.054L108.733 26.3137H108.046V29.2471H106.67ZM116.125 28.2118C118.962 28.298 118.876 23.5529 116.039 23.6392C113.203 23.7255 113.289 28.298 116.125 28.2118ZM116.125 29.3333C111.57 29.5059 111.484 22.3451 116.125 22.5176C120.767 22.6902 120.681 29.5059 116.125 29.3333ZM121.798 25.3647C122.572 25.2784 124.549 25.7098 124.549 24.5882C124.549 23.4667 122.572 23.898 121.798 23.8118V25.3647ZM121.798 28.1255C122.572 27.9529 124.721 28.5569 124.721 27.2627C124.721 25.9686 122.572 26.4863 121.798 26.4V28.1255ZM120.509 29.2471V22.6902H123.689C125.838 22.3451 126.612 25.1922 124.721 25.8824C126.87 26.4863 125.924 29.5059 123.775 29.2471H120.509ZM134.004 29.2471V22.6902H135.379V25.1922H136.067L138.216 22.6902H139.849L137.184 25.7098L139.935 29.2471H138.302L136.067 26.3137H135.379V29.2471H134.004ZM142.428 26.4H144.49L143.631 23.8118H143.373L142.428 26.4ZM140.193 29.2471L142.513 22.6902H144.49L146.897 29.2471H145.436L144.92 27.5216H142.084L141.482 29.2471H140.193ZM151.711 25.6235V23.8118C150.851 23.898 148.874 23.3804 148.96 24.6745C149.046 25.9686 150.851 25.5373 151.711 25.6235ZM147.499 29.2471C147.757 28.298 147.585 26.5725 148.788 26.2275C146.639 25.2784 147.757 22.4314 149.992 22.6902H153V29.2471H151.711V26.7451C148.788 26.5725 149.304 26.8314 148.874 29.2471H147.499ZM0 44V16.4784H29.6545V0H76.9298V44H0Z" fill="#9A9A9A"/>
<path d="M16.0742 35.2862H15.4725L12.464 22.6902H6.79102V37.9607H9.71349V25.3647H10.3152L13.3236 37.9607H18.309L21.3174 25.3647H21.9191V37.9607H24.8416V22.6902H19.1685L16.0742 35.2862ZM45.9006 37.9607H56.3011V35.2862H48.909V31.4902H55.2697V28.9019H48.909V25.3647H56.3011V22.6902H45.9006V37.9607ZM35.414 35.7176C32.0618 35.7176 30.5146 33.3882 30.5146 30.2823C30.5146 27.1764 32.0618 24.9333 35.414 24.9333C38.7663 24.9333 40.3135 27.2627 40.3135 30.2823C40.3135 33.3019 38.7663 35.7176 35.414 35.7176ZM35.414 22.2588C30.3427 22.2588 27.4202 25.5372 27.4202 30.2823C27.4202 35.0274 30.3427 38.3921 35.414 38.3921C40.4854 38.3921 43.4079 35.0274 43.4079 30.2823C43.4079 25.5372 40.4854 22.2588 35.414 22.2588ZM58.3641 37.9607H61.5444L65.0685 31.9215L68.9365 37.9607H72.1169L67.0455 29.9372L71.859 22.6902H68.5927L65.2405 28.1255L61.8882 22.6902H58.6219L63.2635 29.8509L58.3641 37.9607Z" fill="white"/>
</g>
<defs>
<clipPath id="clip0_3711_39500">
<rect width="153" height="44" fill="white"/>
</clipPath>
</defs>
</svg>
