<svg width="184" height="32" viewBox="0 0 184 32" fill="none" xmlns="http://www.w3.org/2000/svg">
<g clip-path="url(#clip0_3711_39503)">
<path d="M55.6232 19.8534C55.6232 22.2827 53.3614 24.0419 50.1781 24.0419H42.7227V8.96338H49.9268C53.0263 8.96338 55.2043 10.6388 55.2043 12.9843C55.2043 14.5759 54.3667 15.5812 53.1101 16.1676C54.4504 16.6702 55.6232 18.0104 55.6232 19.8534ZM45.9897 11.7278V14.9948H49.8431C51.0159 14.9948 51.7698 14.3246 51.7698 13.4032C51.7698 12.4817 50.9321 11.7278 49.8431 11.7278H45.9897ZM50.1781 21.2775C51.4347 21.2775 52.3562 20.5236 52.3562 19.4346C52.3562 18.3456 51.5185 17.5916 50.1781 17.5916H45.9897V21.2775H50.1781Z" fill="#9A9A9A"/>
<path d="M67.9367 23.9581L62.7432 18.0105H61.9055V23.9581H58.5547V8.96338H61.9055V14.7434H62.7432L67.7694 8.96338H71.7067L65.4238 16.1676L72.2927 23.9581H67.9367Z" fill="#9A9A9A"/>
<path d="M72.293 16.5028C72.293 11.9792 75.6443 8.71216 80.335 8.71216C85.0263 8.71216 88.377 11.9792 88.377 16.5028C88.377 21.0263 85.0263 24.2933 80.335 24.2933C75.6443 24.2933 72.293 21.0263 72.293 16.5028ZM84.859 16.5028C84.859 13.6546 83.0156 11.7279 80.335 11.7279C77.6543 11.7279 75.8116 13.6546 75.8116 16.5028C75.8116 19.3509 77.6543 21.2776 80.335 21.2776C83.0156 21.2776 84.859 19.3509 84.859 16.5028Z" fill="#9A9A9A"/>
<path d="M101.193 8.96338H104.544V23.9581H101.193V17.9267H94.4913V23.9581H91.1406V8.96338H94.4913V14.911H101.193V8.96338Z" fill="#9A9A9A"/>
<path d="M111.749 23.9581V11.979H106.555V8.96338H120.209V11.979H115.015V23.9581H111.749Z" fill="#9A9A9A"/>
<path d="M134.617 15.5813V23.9582H132.187L131.517 21.6127C130.763 22.8692 129.172 24.2933 126.743 24.2933C123.727 24.2933 121.549 22.2828 121.549 19.5184C121.549 16.754 123.727 14.8274 128.167 14.8274H131.433C131.266 12.9006 130.261 11.5604 128.418 11.5604C126.91 11.5604 125.905 12.398 125.402 13.3195L122.387 12.8169C123.141 10.22 125.737 8.71216 128.585 8.71216C132.271 8.71216 134.617 11.2252 134.617 15.5813ZM131.35 17.4242H128.251C125.737 17.4242 124.899 18.2619 124.899 19.3509C124.899 20.6074 125.905 21.4452 127.58 21.4452C129.758 21.4452 131.35 19.8536 131.35 17.4242Z" fill="#9A9A9A"/>
<path d="M147.519 23.9581L142.325 18.0105H141.487V23.9581H138.137V8.96338H141.487V14.7434H142.325L147.351 8.96338H151.289L145.006 16.1676L151.875 23.9581H147.519Z" fill="#9A9A9A"/>
<path d="M157.906 23.9581V11.979H152.713V8.96338H166.368V11.979H161.174V23.9581H157.906Z" fill="#9A9A9A"/>
<path d="M183.12 17.4242H171.057C171.392 19.7698 173.068 21.2776 175.58 21.2776C177.34 21.2776 178.68 20.5237 179.434 19.4347L182.534 19.9373C181.444 22.7855 178.512 24.2933 175.329 24.2933C170.806 24.2933 167.539 21.0263 167.539 16.5028C167.539 11.9792 170.806 8.71216 175.329 8.71216C179.853 8.71216 183.12 11.9792 183.12 16.3352C183.204 16.754 183.12 17.0892 183.12 17.4242ZM171.308 14.8274H179.602C179.015 12.9844 177.507 11.6441 175.413 11.6441C173.402 11.5604 171.811 12.9006 171.308 14.8274Z" fill="#9A9A9A"/>
<path d="M0 15.36C0 8.1192 0 4.49884 2.24942 2.24942C4.49884 0 8.1192 0 15.36 0H16.64C23.8808 0 27.5011 0 29.7506 2.24942C32 4.49884 32 8.1192 32 15.36V16.64C32 23.8808 32 27.5011 29.7506 29.7506C27.5011 32 23.8808 32 16.64 32H15.36C8.1192 32 4.49884 32 2.24942 29.7506C0 27.5011 0 23.8808 0 16.64V15.36Z" fill="#606060"/>
<path d="M17.027 23.0534C9.73366 23.0534 5.57372 18.0534 5.40039 9.7334H9.05372C9.17372 15.8401 11.867 18.4267 14.0003 18.9601V9.7334H17.4405V15.0001C19.5471 14.7734 21.7602 12.3734 22.5069 9.7334H25.9469C25.3736 12.9867 22.9736 15.3867 21.2669 16.3734C22.9736 17.1734 25.7071 19.2667 26.7471 23.0534H22.9603C22.1469 20.5201 20.1205 18.5601 17.4405 18.2934V23.0534H17.027Z" fill="white"/>
</g>
<defs>
<clipPath id="clip0_3711_39503">
<rect width="184" height="32" fill="white"/>
</clipPath>
</defs>
</svg>
